<svg xmlns="http://www.w3.org/2000/svg" viewBox="0 0 1000 1060" width="1000" height="1060" font-family="ui-monospace,SFMono-Regular,Menlo,monospace">
<defs>
<linearGradient id="rise" x1="0" y1="1" x2="1" y2="0"><stop offset="0" stop-color="#FF6B5C"/><stop offset="1" stop-color="#FFB13C"/></linearGradient>
<g id="mark"><g transform="translate(0,0)"><path d="M80 6 V176 M80 12 L8 118 M6 118 H104" fill="none" stroke="currentColor" stroke-width="26" stroke-linecap="round" stroke-linejoin="round"/></g><g transform="translate(150,0)"><ellipse cx="55" cy="91" rx="49" ry="85" fill="none" stroke="currentColor" stroke-width="26"/></g><g transform="translate(300,0)"><path d="M15 95 H95 M55 55 V135" fill="none" stroke="url(#rise)" stroke-width="26" stroke-linecap="round"/></g><g transform="translate(450,0)"><path d="M15 95 H95 M55 55 V135" fill="none" stroke="url(#rise)" stroke-width="26" stroke-linecap="round"/></g><g transform="translate(600,0)"><rect x="0" y="10" width="92" height="162" rx="16" fill="url(#rise)"/></g></g>
<g id="markMono"><g transform="translate(0,0)"><path d="M80 6 V176 M80 12 L8 118 M6 118 H104" fill="none" stroke="currentColor" stroke-width="26" stroke-linecap="round" stroke-linejoin="round"/></g><g transform="translate(150,0)"><ellipse cx="55" cy="91" rx="49" ry="85" fill="none" stroke="currentColor" stroke-width="26"/></g><g transform="translate(300,0)"><path d="M15 95 H95 M55 55 V135" fill="none" stroke="currentColor" stroke-width="26" stroke-linecap="round"/></g><g transform="translate(450,0)"><path d="M15 95 H95 M55 55 V135" fill="none" stroke="currentColor" stroke-width="26" stroke-linecap="round"/></g><g transform="translate(600,0)"><rect x="0" y="10" width="92" height="162" rx="16" fill="currentColor"/></g></g>
</defs>
<rect width="1000" height="1060" fill="#FFFFFF"/>
<text x="44" y="32" font-family="ui-monospace,SFMono-Regular,Menlo,monospace" font-size="14" letter-spacing="2" fill="#9AA4B0">PRIMARY</text>
<rect x="44" y="44" width="912" height="360" rx="24" fill="#F7F8FA" stroke="#E6E9EE"/>
<g transform="translate(250,139) scale(0.7226)" color="#18242F"><use href="#mark"/></g>
<text x="500" y="332" text-anchor="middle" font-size="30" letter-spacing="1" fill="#6B7785">// still incrementing</text>
<text x="44" y="434" font-family="ui-monospace,SFMono-Regular,Menlo,monospace" font-size="14" letter-spacing="2" fill="#9AA4B0">INVERSE</text>
<rect x="44" y="446" width="912" height="260" rx="24" fill="#18242F"/>
<g transform="translate(290,521) scale(0.607)" color="#EEF1F4"><use href="#mark"/></g>
<text x="44" y="736" font-family="ui-monospace,SFMono-Regular,Menlo,monospace" font-size="14" letter-spacing="2" fill="#9AA4B0">AVATAR / APP ICON</text>
<text x="356" y="736" font-family="ui-monospace,SFMono-Regular,Menlo,monospace" font-size="14" letter-spacing="2" fill="#9AA4B0">ONE-COLOR</text>
<rect x="44" y="748" width="300" height="280" rx="24" fill="#F7F8FA" stroke="#E6E9EE"/>
<rect x="84" y="778" width="220" height="220" rx="48" fill="#18242F"/>
<g transform="translate(142,808) scale(0.40)"><g transform="translate(0,0)"><path d="M80 6 V176 M80 12 L8 118 M6 118 H104" fill="none" stroke="#EEF1F4" stroke-width="26" stroke-linecap="round" stroke-linejoin="round"/></g><g transform="translate(150,0)"><ellipse cx="55" cy="91" rx="49" ry="85" fill="none" stroke="#EEF1F4" stroke-width="26"/></g><g transform="translate(20,220)"><path d="M15 95 H95 M55 55 V135" fill="none" stroke="url(#rise)" stroke-width="26" stroke-linecap="round"/></g><g transform="translate(170,220)"><path d="M15 95 H95 M55 55 V135" fill="none" stroke="url(#rise)" stroke-width="26" stroke-linecap="round"/></g></g>
<rect x="356" y="748" width="600" height="280" rx="24" fill="#F7F8FA" stroke="#E6E9EE"/>
<g transform="translate(441,832) scale(0.621)" color="#18242F"><use href="#markMono"/></g>
</svg>